<svg width="44" height="44" viewBox="0 0 44 44" fill="none" xmlns="http://www.w3.org/2000/svg">
<circle cx="22" cy="22" r="22" fill="#EEE4DA"/>
<path d="M22 17.4223C19.5161 17.4223 17.458 19.4449 17.458 21.9642C17.458 24.4836 19.4806 26.5062 22 26.5062C24.5193 26.5062 26.5419 24.4481 26.5419 21.9642C26.5419 19.4804 24.4839 17.4223 22 17.4223ZM22 24.8739C20.4032 24.8739 19.0903 23.561 19.0903 21.9642C19.0903 20.3675 20.4032 19.0546 22 19.0546C23.5968 19.0546 24.9097 20.3675 24.9097 21.9642C24.9097 23.561 23.5968 24.8739 22 24.8739Z" fill="#AC8F78"/>
<path d="M26.7193 18.3449C27.2876 18.3449 27.7484 17.8841 27.7484 17.3158C27.7484 16.7475 27.2876 16.2868 26.7193 16.2868C26.151 16.2868 25.6903 16.7475 25.6903 17.3158C25.6903 17.8841 26.151 18.3449 26.7193 18.3449Z" fill="#AC8F78"/>
<path d="M29.3806 14.6545C28.458 13.6965 27.1451 13.1997 25.6548 13.1997H18.3451C15.258 13.1997 13.2 15.2578 13.2 18.3449V25.6191C13.2 27.1449 13.6968 28.4578 14.6903 29.4158C15.6484 30.3384 16.9258 30.7997 18.3806 30.7997H25.6193C27.1451 30.7997 28.4226 30.3029 29.3451 29.4158C30.3032 28.4933 30.8 27.1804 30.8 25.6545V18.3449C30.8 16.8545 30.3032 15.5771 29.3806 14.6545ZM29.2387 25.6545C29.2387 26.7545 28.8484 27.6416 28.2097 28.2449C27.5709 28.8481 26.6839 29.1674 25.6193 29.1674H18.3806C17.3161 29.1674 16.429 28.8481 15.7903 28.2449C15.1516 27.6062 14.8322 26.7191 14.8322 25.6191V18.3449C14.8322 17.2804 15.1516 16.3933 15.7903 15.7545C16.3935 15.1513 17.3161 14.832 18.3806 14.832H25.6903C26.7548 14.832 27.6419 15.1513 28.2806 15.79C28.8839 16.4287 29.2387 17.3158 29.2387 18.3449V25.6545Z" fill="#AC8F78"/>
</svg>
