<svg width="44" height="44" viewBox="0 0 44 44" fill="none" xmlns="http://www.w3.org/2000/svg">
<circle cx="22" cy="22" r="22" fill="#EEE4DA"/>
<path d="M30.3286 16.9624C29.7394 17.2279 29.1052 17.4069 28.4399 17.487C29.1192 17.0749 29.6401 16.422 29.8858 15.6432C29.2504 16.0254 28.5469 16.3027 27.7976 16.4524C27.1979 15.8048 26.3432 15.3999 25.3974 15.3999C23.5815 15.3999 22.1092 16.8919 22.1092 18.7324C22.1092 18.9932 22.1381 19.2474 22.1944 19.4917C19.4614 19.3526 17.038 18.0261 15.4161 16.0099C15.133 16.5018 14.971 17.0742 14.971 17.6855C14.971 18.8415 15.5514 19.8617 16.4338 20.4591C15.895 20.4416 15.3878 20.2916 14.9443 20.042C14.944 20.0559 14.944 20.0701 14.944 20.0842C14.944 21.6985 16.0775 23.0451 17.582 23.3518C17.3061 23.4276 17.0156 23.4685 16.7156 23.4685C16.5034 23.4685 16.2975 23.4477 16.0967 23.4085C16.5155 24.7323 17.7297 25.6961 19.1685 25.7228C18.0431 26.6166 16.6254 27.1495 15.0845 27.1495C14.8193 27.1495 14.5574 27.1336 14.3 27.1026C15.7557 28.0486 17.4841 28.5999 19.341 28.5999C25.3899 28.5999 28.6972 23.5222 28.6972 19.1185C28.6972 18.9741 28.6943 18.83 28.6881 18.6869C29.3304 18.218 29.8881 17.6308 30.3286 16.9624Z" fill="#AC8F78"/>
</svg>
