<svg width="44" height="44" viewBox="0 0 44 44" fill="none" xmlns="http://www.w3.org/2000/svg">
<circle cx="22" cy="22" r="22" fill="#EEE4DA"/>
<path d="M29.7861 18.3894C29.5913 17.6457 29.0173 17.06 28.2885 16.8612C26.9673 16.5 21.67 16.5 21.67 16.5C21.67 16.5 16.3727 16.5 15.0515 16.8612C14.3228 17.06 13.7487 17.6457 13.5539 18.3894C13.2 19.7375 13.2 22.5501 13.2 22.5501C13.2 22.5501 13.2 25.3627 13.5539 26.7106C13.7487 27.4543 14.3228 28.0401 15.0515 28.2389C16.3727 28.6 21.67 28.6 21.67 28.6C21.67 28.6 26.9673 28.6 28.2885 28.2389C29.0173 28.0401 29.5913 27.4543 29.7861 26.7106C30.14 25.3627 30.14 22.5501 30.14 22.5501C30.14 22.5501 30.14 19.7375 29.7861 18.3894V18.3894ZM19.9759 25.143V19.9572L24.377 22.5501L19.9759 25.143Z" fill="#AC8F78"/>
</svg>
